<?xml version="1.0" encoding="UTF-8" standalone="no"?>
<svg
   xmlns:dc="http://purl.org/dc/elements/1.1/"
   xmlns:cc="http://creativecommons.org/ns#"
   xmlns:rdf="http://www.w3.org/1999/02/22-rdf-syntax-ns#"
   xmlns:svg="http://www.w3.org/2000/svg"
   xmlns="http://www.w3.org/2000/svg"
   xmlns:sodipodi="http://sodipodi.sourceforge.net/DTD/sodipodi-0.dtd"
   xmlns:inkscape="http://www.inkscape.org/namespaces/inkscape"
   width="15944.882"
   height="2104.7244"
   viewBox="0 0 12755.901 1683.7784"
   version="1.2"
   id="svg3289"
   inkscape:version="0.48.2 r9819"
   sodipodi:docname="heavy_wind.svg">
  <metadata
     id="metadata3353">
    <rdf:RDF>
      <cc:Work
         rdf:about="">
        <dc:format>image/svg+xml</dc:format>
        <dc:type
           rdf:resource="http://purl.org/dc/dcmitype/StillImage" />
      </cc:Work>
    </rdf:RDF>
  </metadata>
  <sodipodi:namedview
     pagecolor="#ffffff"
     bordercolor="#666666"
     borderopacity="1"
     objecttolerance="10"
     gridtolerance="10"
     guidetolerance="10"
     inkscape:pageopacity="0"
     inkscape:pageshadow="2"
     inkscape:window-width="1440"
     inkscape:window-height="751"
     id="namedview3351"
     showgrid="false"
     inkscape:document-units="mm"
     units="mm"
     width="841mm"
     showguides="false"
     inkscape:guide-bbox="true"
     inkscape:zoom="0.088388348"
     inkscape:cx="4049.9091"
     inkscape:cy="2285.4981"
     inkscape:window-x="0"
     inkscape:window-y="0"
     inkscape:window-maximized="1"
     inkscape:current-layer="svg3289">
    <sodipodi:guide
       position="0,0"
       orientation="0,17007.873"
       id="guide4198" />
    <sodipodi:guide
       position="17007.873,0"
       orientation="-2104.7244,0"
       id="guide4200" />
    <sodipodi:guide
       position="17007.873,2104.7244"
       orientation="0,-17007.873"
       id="guide4202" />
    <sodipodi:guide
       position="0,2104.7244"
       orientation="2104.7244,0"
       id="guide4204" />
    <sodipodi:guide
       orientation="1,0"
       position="3543.3071,928.28516"
       id="guide4206" />
  </sodipodi:namedview>
  <title
     id="title3291">Qt Svg Document</title>
  <desc
     id="desc3293">Generated with Qt</desc>
  <defs
     id="defs3295" />
  <g
     id="g3413"
     transform="translate(10343.511,-4539.9982)">
    <g
       vector-effect="non-scaling-stroke"
       transform="matrix(2.85714,0,0,2.85714,-1187.8855,6139.343)"
       font-size="4pt"
       font-weight="400"
       font-style="normal"
       id="g3299"
       style="font-size:5px;font-style:normal;font-weight:400;fill:none;stroke:#0000ff;stroke-width:1;stroke-linecap:square;stroke-linejoin:bevel;stroke-opacity:1;font-family:Lucida Grande">
      <polyline
         points="20.2859,-343.382 73.5238,-328.9 126.754,-314.417 179.956,-299.881 233.126,-285.291 286.258,-270.647 339.349,-255.944 392.399,-241.182 445.406,-226.354 498.373,-211.455 551.303,-196.479 604.201,-181.417 657.075,-166.267 709.935,-151.024 762.791,-135.683 815.653,-120.247 868.534,-104.716 921.442,-89.0943 974.384,-73.3914 1027.36,-57.6159 1080.37,-41.7825 1080.37,-41.7825 1090.2,-115.87 1099.51,-189.946 1108.29,-264.011 1116.54,-338.06 1124.27,-412.09 1131.5,-486.094 1131.5,-486.094 1078.51,-486.094 1025.54,-486.094 972.623,-486.094 919.761,-486.094 866.97,-486.094 814.256,-486.094 761.613,-486.094 709.031,-486.094 656.483,-486.094 603.938,-486.094 551.359,-486.094 498.711,-486.094 445.968,-486.094 393.107,-486.094 340.126,-486.094 287.026,-486.094 233.831,-486.094 180.569,-486.094 127.275,-486.094 73.9869,-486.094 73.9869,-486.094 65.006,-462.3 56.0367,-438.51 47.0796,-414.724 38.1352,-390.94 29.2038,-367.16 20.2859,-343.382 "
         id="polyline3301"
         style="fill:none;stroke:#000000;stroke-opacity:1" />
    </g>
    <g
       vector-effect="non-scaling-stroke"
       transform="matrix(2.85714,0,0,2.85714,-1187.8855,6139.343)"
       font-size="4pt"
       font-weight="400"
       font-style="normal"
       id="g3303"
       style="font-size:5px;font-style:normal;font-weight:400;fill:none;stroke:#ff0000;stroke-width:1;stroke-linecap:square;stroke-linejoin:bevel;stroke-opacity:1;font-family:Lucida Grande">
      <polyline
         points="0,-317.811 65.6489,-299.952 118.878,-285.469 172.05,-270.942 225.187,-256.361 278.287,-241.725 331.342,-227.032 384.356,-212.28 437.324,-197.463 490.25,-182.576 543.135,-167.612 595.985,-152.564 648.812,-137.428 701.622,-122.198 754.429,-106.872 807.244,-91.4494 860.08,-75.9316 912.947,-60.3222 965.853,-44.6299 1018.8,-28.8635 1115.44,0 1115.44,0 1129.85,-110.611 1139.2,-184.959 1148.04,-259.579 1156.3,-333.629 1164.06,-407.934 1172.96,-499.094 1172.96,-499.094 1078.51,-499.094 1025.54,-499.094 972.623,-499.094 919.761,-499.094 866.97,-499.094 814.256,-499.094 761.613,-499.094 709.031,-499.094 656.483,-499.094 603.938,-499.094 551.359,-499.094 498.711,-499.094 445.968,-499.094 393.107,-499.094 340.126,-499.094 287.026,-499.094 233.831,-499.094 180.569,-499.094 127.275,-499.094 68.2052,-499.094 68.2052,-499.094 55.6489,-465.828 46.6782,-442.034 37.7212,-418.248 28.7737,-394.456 19.8407,-370.672 0,-317.811 "
         id="polyline3305"
         style="fill:none" />
    </g>
  </g>
  <g
     id="g3407"
     transform="translate(6863.5124,-3039.9988)">
    <g
       vector-effect="non-scaling-stroke"
       transform="matrix(2.85714,0,0,2.85714,-1187.8855,6139.343)"
       font-size="4pt"
       font-weight="400"
       font-style="normal"
       id="g3307"
       style="font-size:5px;font-style:normal;font-weight:400;fill:none;stroke:#0000ff;stroke-width:1;stroke-linecap:square;stroke-linejoin:bevel;stroke-opacity:1;font-family:Lucida Grande">
      <polyline
         points="73.9869,-533.826 127.274,-533.944 180.568,-534.001 233.831,-533.877 287.028,-533.638 340.13,-533.339 393.114,-533.023 445.977,-532.723 498.722,-532.466 551.371,-532.27 603.95,-532.143 656.496,-532.094 709.043,-532.117 761.626,-532.208 814.269,-532.358 866.985,-532.554 919.778,-532.784 972.643,-533.036 1025.57,-533.299 1078.53,-533.564 1131.53,-533.826 1131.53,-533.826 1138.5,-614.713 1144.91,-695.579 1150.72,-776.42 1155.93,-857.234 1160.55,-938.016 1164.59,-1018.76 1164.59,-1018.76 1119.43,-1018.77 1074.28,-1018.79 1029.16,-1018.8 984.059,-1018.82 938.989,-1018.83 893.965,-1018.84 848.996,-1018.86 804.097,-1018.87 759.279,-1018.89 714.543,-1018.9 669.873,-1018.91 625.24,-1018.93 580.585,-1018.94 535.826,-1018.96 490.856,-1018.97 445.556,-1018.98 399.778,-1019 353.392,-1019.01 306.273,-1019.03 258.319,-1019.04 258.319,-1019.04 227.29,-938.05 196.361,-857.116 165.553,-776.232 134.88,-695.392 104.355,-614.592 73.9869,-533.826 "
         id="polyline3309"
         style="fill:none;stroke:#000000;stroke-opacity:1" />
    </g>
    <g
       vector-effect="non-scaling-stroke"
       transform="matrix(2.85714,0,0,2.85714,-1187.8855,6139.343)"
       font-size="4pt"
       font-weight="400"
       font-style="normal"
       id="g3311"
       style="font-size:5px;font-style:normal;font-weight:400;fill:none;stroke:#ff0000;stroke-width:1;stroke-linecap:square;stroke-linejoin:bevel;stroke-opacity:1;font-family:Lucida Grande">
      <polyline
         points="63.2883,-533.803 127.274,-533.944 180.568,-534.001 233.831,-533.877 287.028,-533.638 340.13,-533.339 393.114,-533.023 445.977,-532.723 498.722,-532.466 551.371,-532.27 603.95,-532.143 656.496,-532.094 709.043,-532.117 761.626,-532.208 814.269,-532.358 866.985,-532.554 919.778,-532.784 972.643,-533.036 1025.57,-533.299 1078.53,-533.564 1171.67,-534.025 1171.67,-534.025 1178.36,-611.28 1184.78,-692.42 1190.64,-773.84 1195.85,-854.661 1200.48,-935.736 1205.29,-1031.75 1205.29,-1031.75 1119.43,-1031.77 1074.28,-1031.79 1029.16,-1031.8 984.063,-1031.82 938.993,-1031.83 893.969,-1031.84 849,-1031.86 804.101,-1031.87 759.283,-1031.89 714.547,-1031.9 669.877,-1031.91 625.244,-1031.93 580.589,-1031.94 535.83,-1031.96 490.86,-1031.97 445.56,-1031.98 399.782,-1032 353.396,-1032.01 306.277,-1032.03 252.591,-1032.04 252.591,-1032.04 217.948,-941.62 187.016,-860.675 156.208,-779.793 125.525,-698.926 94.9949,-618.111 63.2883,-533.803 "
         id="polyline3313"
         style="fill:none" />
    </g>
  </g>
  <g
     id="g3401"
     transform="matrix(-1,0,0,-1,5763.3326,3247.4371)">
    <g
       vector-effect="non-scaling-stroke"
       transform="matrix(2.85714,0,0,2.85714,-1187.8855,6139.343)"
       font-size="4pt"
       font-weight="400"
       font-style="normal"
       id="g3315"
       style="font-size:5px;font-style:normal;font-weight:400;fill:none;stroke:#0000ff;stroke-width:1;stroke-linecap:square;stroke-linejoin:bevel;stroke-opacity:1;font-family:Lucida Grande">
      <polyline
         points="258.319,-1068.76 306.267,-1068.12 353.384,-1067.42 399.771,-1066.71 445.552,-1066.08 490.855,-1065.57 535.827,-1065.21 580.588,-1065 625.243,-1064.93 669.876,-1064.98 714.545,-1065.14 759.281,-1065.37 804.1,-1065.66 848.999,-1065.99 893.969,-1066.34 938.995,-1066.71 984.067,-1067.07 1029.17,-1067.44 1074.29,-1067.79 1119.44,-1068.14 1164.61,-1068.48 1164.61,-1068.48 1167.51,-1148.86 1169.9,-1229.21 1171.74,-1309.54 1173,-1389.84 1173.69,-1470.11 1173.84,-1550.33 1173.84,-1550.33 1138.07,-1550.37 1102.33,-1550.4 1066.61,-1550.44 1030.89,-1550.47 995.202,-1550.5 959.533,-1550.54 923.892,-1550.57 888.291,-1550.6 852.739,-1550.64 817.246,-1550.67 781.816,-1550.7 746.442,-1550.73 711.101,-1550.77 675.738,-1550.8 640.262,-1550.83 604.531,-1550.87 568.34,-1550.9 531.415,-1550.94 493.408,-1550.97 453.908,-1551.01 453.908,-1551.01 420.845,-1470.57 387.95,-1390.16 355.24,-1309.78 322.726,-1229.42 290.417,-1149.08 258.319,-1068.76 "
         id="polyline3317"
         style="fill:none;stroke:#000000;stroke-opacity:1" />
    </g>
    <g
       vector-effect="non-scaling-stroke"
       transform="matrix(2.85714,0,0,2.85714,-1187.8855,6139.343)"
       font-size="4pt"
       font-weight="400"
       font-style="normal"
       id="g3319"
       style="font-size:5px;font-style:normal;font-weight:400;fill:none;stroke:#ff0000;stroke-width:1;stroke-linecap:square;stroke-linejoin:bevel;stroke-opacity:1;font-family:Lucida Grande">
      <polyline
         points="247.598,-1068.9 306.267,-1068.12 353.384,-1067.42 399.771,-1066.71 445.552,-1066.08 490.855,-1065.57 535.827,-1065.21 580.588,-1065 625.243,-1064.93 669.876,-1064.98 714.545,-1065.14 759.281,-1065.37 804.1,-1065.66 848.999,-1065.99 893.969,-1066.34 938.995,-1066.71 984.067,-1067.07 1029.17,-1067.44 1074.29,-1067.79 1119.44,-1068.14 1204.63,-1068.78 1204.63,-1068.78 1207.48,-1147.41 1209.89,-1228.02 1211.74,-1308.9 1213,-1389.21 1213.69,-1469.77 1213.86,-1563.3 1213.86,-1563.3 1138.09,-1563.37 1102.34,-1563.4 1066.62,-1563.44 1030.91,-1563.47 995.215,-1563.5 959.545,-1563.54 923.905,-1563.57 888.303,-1563.6 852.751,-1563.64 817.258,-1563.67 781.828,-1563.7 746.455,-1563.73 711.113,-1563.77 675.75,-1563.8 640.275,-1563.83 604.544,-1563.87 568.353,-1563.9 531.427,-1563.94 493.42,-1563.97 448.442,-1564.01 448.442,-1564.01 411.589,-1474.35 378.687,-1393.93 345.978,-1313.55 313.448,-1233.15 281.131,-1152.79 247.598,-1068.9 "
         id="polyline3321"
         style="fill:none" />
    </g>
  </g>
  <g
     id="g3387"
     transform="matrix(-1,0,0,-1,2319.5161,265.38751)">
    <g
       vector-effect="non-scaling-stroke"
       transform="matrix(2.85714,0,0,2.85714,-1187.8855,6139.343)"
       font-size="4pt"
       font-weight="400"
       font-style="normal"
       id="g3331"
       style="font-size:5px;font-style:normal;font-weight:400;fill:none;stroke:#0000ff;stroke-width:1;stroke-linecap:square;stroke-linejoin:bevel;stroke-opacity:1;font-family:Lucida Grande">
      <polyline
         points="663.884,-2130.21 691.173,-2129.92 717.299,-2129.67 742.627,-2129.47 767.444,-2129.31 791.966,-2129.19 816.341,-2129.11 840.664,-2129.06 864.992,-2129.04 889.35,-2129.04 913.75,-2129.05 938.189,-2129.08 962.663,-2129.11 987.164,-2129.15 1011.68,-2129.19 1036.22,-2129.23 1060.77,-2129.27 1085.33,-2129.3 1109.9,-2129.34 1134.47,-2129.37 1159.07,-2129.4 1159.07,-2129.4 1153.69,-2210.27 1147.61,-2291.15 1140.71,-2372.02 1132.9,-2452.88 1124.18,-2533.72 1114.67,-2614.54 1114.67,-2614.54 1103.32,-2614.57 1091.98,-2614.6 1080.65,-2614.63 1069.32,-2614.67 1057.99,-2614.7 1046.67,-2614.73 1035.35,-2614.76 1024.04,-2614.8 1012.74,-2614.83 1001.45,-2614.86 990.176,-2614.89 978.92,-2614.93 967.679,-2614.96 956.445,-2614.99 945.198,-2615.02 933.903,-2615.06 922.495,-2615.09 910.881,-2615.12 898.921,-2615.16 886.435,-2615.19 886.435,-2615.19 848.816,-2534.3 811.4,-2453.43 774.198,-2372.59 737.212,-2291.78 700.442,-2210.98 663.884,-2130.21 "
         id="polyline3333"
         style="fill:none;stroke:#000000;stroke-opacity:1" />
    </g>
    <g
       vector-effect="non-scaling-stroke"
       transform="matrix(2.85714,0,0,2.85714,-1187.8855,6139.343)"
       font-size="4pt"
       font-weight="400"
       font-style="normal"
       id="g3335"
       style="font-size:5px;font-style:normal;font-weight:400;fill:none;stroke:#ff0000;stroke-width:1;stroke-linecap:square;stroke-linejoin:bevel;stroke-opacity:1;font-family:Lucida Grande">
      <polyline
         points="652.952,-2130.33 691.173,-2129.92 717.299,-2129.67 742.627,-2129.47 767.444,-2129.31 791.966,-2129.19 816.341,-2129.11 840.664,-2129.06 864.992,-2129.04 889.35,-2129.04 913.75,-2129.05 938.189,-2129.08 962.663,-2129.11 987.164,-2129.15 1011.68,-2129.19 1036.22,-2129.23 1060.77,-2129.27 1085.33,-2129.3 1109.9,-2129.34 1134.47,-2129.37 1199.17,-2129.45 1199.17,-2129.45 1193.6,-2212.92 1187.5,-2294.14 1180.52,-2375.83 1172.71,-2456.72 1163.95,-2538.01 1153.43,-2627.43 1153.43,-2627.43 1103.36,-2627.57 1092.02,-2627.6 1080.69,-2627.63 1069.36,-2627.67 1058.03,-2627.7 1046.71,-2627.73 1035.39,-2627.76 1024.08,-2627.8 1012.78,-2627.83 1001.49,-2627.86 990.214,-2627.89 978.957,-2627.93 967.716,-2627.96 956.482,-2627.99 945.236,-2628.02 933.94,-2628.06 922.533,-2628.09 910.918,-2628.12 898.958,-2628.16 881.458,-2628.21 881.458,-2628.21 839.741,-2538.5 802.316,-2457.61 765.113,-2376.77 728.11,-2295.92 691.332,-2215.11 652.952,-2130.33 "
         id="polyline3337"
         style="fill:none" />
    </g>
  </g>
  <g
     id="g3381"
     transform="matrix(0,1,-1,0,7738.3078,-522.30469)">
    <g
       vector-effect="non-scaling-stroke"
       transform="matrix(2.85714,0,0,2.85714,-1187.8855,6139.343)"
       font-size="4pt"
       font-weight="400"
       font-style="normal"
       id="g3339"
       style="font-size:5px;font-style:normal;font-weight:400;fill:none;stroke:#0000ff;stroke-width:1;stroke-linecap:square;stroke-linejoin:bevel;stroke-opacity:1;font-family:Lucida Grande">
      <polyline
         points="886.435,-2661.49 898.917,-2661.36 910.874,-2661.26 922.489,-2661.17 933.896,-2661.1 945.191,-2661.04 956.437,-2660.99 967.671,-2660.96 978.912,-2660.93 990.169,-2660.91 1001.44,-2660.9 1012.73,-2660.89 1024.03,-2660.88 1035.34,-2660.87 1046.66,-2660.87 1057.98,-2660.86 1069.31,-2660.85 1080.64,-2660.85 1091.97,-2660.84 1103.31,-2660.84 1114.66,-2660.83 1114.66,-2660.83 1107.13,-2720.83 1099.25,-2780.84 1090.93,-2840.87 1082.1,-2900.89 1072.73,-2960.91 1062.81,-3020.91 1062.81,-3020.91 1062.57,-3020.82 1062.34,-3020.73 1062.11,-3020.63 1061.88,-3020.54 1061.65,-3020.45 1061.41,-3020.36 1061.18,-3020.26 1060.95,-3020.17 1060.72,-3020.08 1060.48,-3019.99 1060.25,-3019.9 1060.02,-3019.8 1059.79,-3019.71 1059.55,-3019.62 1059.32,-3019.53 1059.09,-3019.44 1058.86,-3019.35 1058.62,-3019.25 1058.39,-3019.16 1058.16,-3019.07 1058.16,-3019.07 1029.24,-2959.44 1000.45,-2899.82 971.77,-2840.22 943.211,-2780.62 914.767,-2721.05 886.435,-2661.49 "
         id="polyline3341"
         style="fill:none;stroke:#000000;stroke-width:1.00006366;stroke-miterlimit:4;stroke-opacity:1;stroke-dasharray:none" />
    </g>
    <g
       vector-effect="non-scaling-stroke"
       transform="matrix(2.85714,0,0,2.85714,-1187.8855,6139.343)"
       font-size="4pt"
       font-weight="400"
       font-style="normal"
       id="g3343"
       style="font-size:5px;font-style:normal;font-weight:400;fill:none;stroke:#ff0000;stroke-width:1;stroke-linecap:square;stroke-linejoin:bevel;stroke-opacity:1;font-family:Lucida Grande">
      <polyline
         points="875.406,-2661.6 898.917,-2661.36 910.874,-2661.26 922.489,-2661.17 933.896,-2661.1 945.191,-2661.04 956.437,-2660.99 967.671,-2660.96 978.912,-2660.93 990.169,-2660.91 1001.44,-2660.9 1012.73,-2660.89 1024.03,-2660.88 1035.34,-2660.87 1046.66,-2660.87 1057.98,-2660.86 1069.31,-2660.85 1080.64,-2660.85 1091.97,-2660.84 1103.31,-2660.84 1155.01,-2660.82 1155.01,-2660.82 1146.81,-2725.81 1138.91,-2786.05 1130.51,-2846.65 1121.68,-2906.71 1112.25,-2967.08 1099.17,-3046.2 1099.17,-3046.2 1058.87,-3030.11 1058.64,-3030.01 1058.41,-3029.92 1058.18,-3029.83 1057.95,-3029.74 1057.72,-3029.65 1057.5,-3029.56 1057.27,-3029.47 1057.04,-3029.38 1056.81,-3029.29 1056.58,-3029.2 1056.35,-3029.11 1056.12,-3029.02 1055.89,-3028.93 1055.65,-3028.83 1055.42,-3028.74 1055.19,-3028.65 1054.96,-3028.56 1054.74,-3028.47 1050.87,-3026.96 1050.87,-3026.96 1020.24,-2963.79 991.435,-2904.16 962.759,-2844.55 934.187,-2784.93 905.737,-2725.35 875.406,-2661.6 "
         id="polyline3345"
         style="fill:none" />
    </g>
  </g>
  <g
     id="g3393"
     transform="translate(1083.5145,49.780409)">
    <g
       vector-effect="non-scaling-stroke"
       transform="matrix(2.85714,0,0,2.85714,-1187.8855,6139.343)"
       font-size="4pt"
       font-weight="400"
       font-style="normal"
       id="g3323"
       style="font-size:5px;font-style:normal;font-weight:400;fill:none;stroke:#0000ff;stroke-width:1;stroke-linecap:square;stroke-linejoin:bevel;stroke-opacity:1;font-family:Lucida Grande">
      <polyline
         points="453.908,-1598.68 493.393,-1598.17 531.391,-1597.74 568.314,-1597.38 604.504,-1597.11 640.235,-1596.92 675.711,-1596.81 711.074,-1596.77 746.415,-1596.78 781.788,-1596.82 817.217,-1596.9 852.71,-1597 888.261,-1597.12 923.862,-1597.24 959.502,-1597.36 995.171,-1597.48 1030.86,-1597.6 1066.57,-1597.71 1102.3,-1597.81 1138.04,-1597.91 1173.8,-1598 1173.8,-1598 1173.22,-1678.81 1172.08,-1759.61 1170.12,-1840.39 1167.29,-1921.14 1163.59,-2001.86 1159.09,-2082.54 1159.09,-2082.54 1134.5,-2082.58 1109.92,-2082.62 1085.35,-2082.66 1060.79,-2082.7 1036.25,-2082.74 1011.71,-2082.78 987.186,-2082.82 962.685,-2082.86 938.211,-2082.9 913.771,-2082.94 889.371,-2082.98 865.012,-2083.02 840.685,-2083.06 816.361,-2083.1 791.986,-2083.14 767.464,-2083.18 742.646,-2083.22 717.316,-2083.27 691.185,-2083.31 663.884,-2083.35 663.884,-2083.35 628.372,-2002.52 593.055,-1921.7 557.946,-1840.92 523.05,-1760.15 488.371,-1679.4 453.908,-1598.68 "
         id="polyline3325"
         style="fill:none;stroke:#000000;stroke-opacity:1" />
    </g>
    <g
       vector-effect="non-scaling-stroke"
       transform="matrix(2.85714,0,0,2.85714,-1187.8855,6139.343)"
       font-size="4pt"
       font-weight="400"
       font-style="normal"
       id="g3327"
       style="font-size:5px;font-style:normal;font-weight:400;fill:none;stroke:#ff0000;stroke-width:1;stroke-linecap:square;stroke-linejoin:bevel;stroke-opacity:1;font-family:Lucida Grande">
      <polyline
         points="443.084,-1598.81 493.393,-1598.17 531.391,-1597.74 568.314,-1597.38 604.504,-1597.11 640.235,-1596.92 675.711,-1596.81 711.074,-1596.77 746.415,-1596.78 781.788,-1596.82 817.217,-1596.9 852.71,-1597 888.261,-1597.12 923.862,-1597.24 959.502,-1597.36 995.171,-1597.48 1030.86,-1597.6 1066.57,-1597.71 1102.3,-1597.81 1138.04,-1597.91 1213.8,-1598.11 1213.8,-1598.11 1213.22,-1679.1 1212.08,-1760.17 1210.1,-1841.77 1207.26,-1922.54 1203.55,-2003.69 1198.43,-2095.48 1198.43,-2095.48 1134.52,-2095.58 1109.94,-2095.62 1085.37,-2095.66 1060.82,-2095.7 1036.27,-2095.74 1011.73,-2095.78 987.208,-2095.82 962.706,-2095.86 938.232,-2095.9 913.792,-2095.94 889.392,-2095.98 865.034,-2096.02 840.706,-2096.06 816.383,-2096.1 792.008,-2096.14 767.486,-2096.18 742.667,-2096.22 717.338,-2096.27 691.206,-2096.31 658.677,-2096.36 658.677,-2096.36 619.208,-2006.52 583.884,-1925.69 548.775,-1844.9 513.862,-1764.1 479.174,-1683.33 443.084,-1598.81 "
         id="polyline3329"
         style="fill:none" />
    </g>
    <g
       vector-effect="non-scaling-stroke"
       transform="matrix(2.85714,0,0,2.85714,-1187.8855,6139.343)"
       font-size="4pt"
       font-weight="400"
       font-style="normal"
       id="g3347"
       style="font-size:5px;font-style:normal;font-weight:400;fill:none;stroke:#000000;stroke-width:1;stroke-linecap:square;stroke-linejoin:bevel;stroke-opacity:1;font-family:Lucida Grande" />
  </g>
  <g
     id="g4216"
     transform="translate(307.73279,45.254819)">
    <path
       inkscape:connector-curvature="0"
       id="path4208"
       d="m 0,90.509339 2834.646,0"
       style="fill:none;stroke:#000000;stroke-width:5.66928959;stroke-linecap:butt;stroke-linejoin:miter;stroke-miterlimit:4;stroke-opacity:1;stroke-dasharray:none" />
    <text
       sodipodi:linespacing="125%"
       id="text4210"
       y="72.707115"
       x="1354.5571"
       style="font-size:76.74295807px;font-style:normal;font-weight:normal;line-height:125%;letter-spacing:0px;word-spacing:0px;fill:#000000;fill-opacity:1;stroke:none;font-family:Sans"
       xml:space="preserve"><tspan
         y="72.707115"
         x="1354.5571"
         id="tspan4212"
         sodipodi:role="line">1m</tspan><tspan
         id="tspan4214"
         y="168.63582"
         x="1354.5571"
         sodipodi:role="line" /></text>
  </g>
</svg>
