<?xml version="1.0" encoding="UTF-8" standalone="no"?>
<svg
   xmlns:dc="http://purl.org/dc/elements/1.1/"
   xmlns:cc="http://creativecommons.org/ns#"
   xmlns:rdf="http://www.w3.org/1999/02/22-rdf-syntax-ns#"
   xmlns:svg="http://www.w3.org/2000/svg"
   xmlns="http://www.w3.org/2000/svg"
   xmlns:sodipodi="http://sodipodi.sourceforge.net/DTD/sodipodi-0.dtd"
   xmlns:inkscape="http://www.inkscape.org/namespaces/inkscape"
   width="12047.244"
   height="2979.9211"
   viewBox="0 0 9637.7893 2383.9353"
   version="1.2"
   id="svg3274"
   inkscape:version="0.48.2 r9819"
   sodipodi:docname="heavy_wind.svg">
  <metadata
     id="metadata3322">
    <rdf:RDF>
      <cc:Work
         rdf:about="">
        <dc:format>image/svg+xml</dc:format>
        <dc:type
           rdf:resource="http://purl.org/dc/dcmitype/StillImage" />
      </cc:Work>
    </rdf:RDF>
  </metadata>
  <sodipodi:namedview
     pagecolor="#ffffff"
     bordercolor="#666666"
     borderopacity="1"
     objecttolerance="10"
     gridtolerance="10"
     guidetolerance="10"
     inkscape:pageopacity="0"
     inkscape:pageshadow="2"
     inkscape:window-width="1440"
     inkscape:window-height="754"
     id="namedview3320"
     showgrid="false"
     width="2104.72px"
     units="m"
     showguides="false"
     inkscape:guide-bbox="true"
     inkscape:zoom="0.084158725"
     inkscape:cx="4526.6714"
     inkscape:cy="1267.4309"
     inkscape:window-x="0"
     inkscape:window-y="0"
     inkscape:window-maximized="1"
     inkscape:current-layer="svg3274">
    <sodipodi:guide
       orientation="0,1"
       position="394.25,2818.75"
       id="guide3440" />
    <sodipodi:guide
       position="0,0"
       orientation="0,12047.244"
       id="guide3442" />
    <sodipodi:guide
       position="12047.244,0"
       orientation="-2979.9211,0"
       id="guide3444" />
    <sodipodi:guide
       position="12047.244,2979.9211"
       orientation="0,-12047.244"
       id="guide3446" />
    <sodipodi:guide
       position="0,2979.9211"
       orientation="2979.9211,0"
       id="guide3448" />
    <sodipodi:guide
       orientation="1,0"
       position="999.99609,2640.125"
       id="guide3450" />
  </sodipodi:namedview>
  <title
     id="title3276">Qt Svg Document</title>
  <desc
     id="desc3278">Generated with Qt</desc>
  <defs
     id="defs3280">
    <marker
       inkscape:stockid="Arrow1Lend"
       orient="auto"
       refY="0.0"
       refX="0.0"
       id="Arrow1Lend"
       style="overflow:visible;">
      <path
         id="path4228"
         d="M 0.0,0.0 L 5.0,-5.0 L -12.5,0.0 L 5.0,5.0 L 0.0,0.0 z "
         style="fill-rule:evenodd;stroke:#000000;stroke-width:1.0pt;marker-start:none;"
         transform="scale(0.8) rotate(180) translate(12.5,0)" />
    </marker>
    <marker
       inkscape:stockid="Arrow1Lstart"
       orient="auto"
       refY="0.0"
       refX="0.0"
       id="Arrow1Lstart"
       style="overflow:visible">
      <path
         id="path4225"
         d="M 0.0,0.0 L 5.0,-5.0 L -12.5,0.0 L 5.0,5.0 L 0.0,0.0 z "
         style="fill-rule:evenodd;stroke:#000000;stroke-width:1.0pt;marker-start:none"
         transform="scale(0.8) translate(12.5,0)" />
    </marker>
  </defs>
  <g
     id="g3434"
     transform="translate(7771.0987,-4405.3848)">
    <g
       vector-effect="non-scaling-stroke"
       transform="matrix(2.85714,0,0,2.85714,-1845.4945,6729.284)"
       font-size="4pt"
       font-weight="400"
       font-style="normal"
       id="g3284"
       style="font-size:5px;font-style:normal;font-weight:400;fill:none;stroke:#0000ff;stroke-width:1;stroke-linecap:square;stroke-linejoin:bevel;stroke-opacity:1;font-family:Lucida Grande">
      <polyline
         points="20.2714,-343.439 73.5358,-329.054 126.793,-314.669 179.999,-300.149 233.159,-285.523 286.273,-270.813 339.343,-256.034 392.37,-241.193 445.358,-226.294 498.307,-211.334 551.223,-196.308 604.111,-181.21 656.979,-166.037 709.836,-150.783 762.692,-135.446 815.56,-120.027 868.449,-104.525 921.369,-88.944 974.325,-73.2904 1027.32,-57.571 1080.35,-41.7979 1080.35,-41.7979 1095.4,-157.607 1109.22,-273.391 1121.75,-389.146 1132.96,-504.864 1142.88,-620.526 1151.61,-736.11 1151.61,-736.11 1102.44,-736.11 1053.29,-736.11 1004.18,-736.11 955.094,-736.11 906.063,-736.11 857.096,-736.11 808.205,-736.11 759.394,-736.11 710.664,-736.11 661.995,-736.11 613.355,-736.11 564.698,-736.11 515.965,-736.11 467.091,-736.11 418.013,-736.11 368.674,-736.11 319.021,-736.11 269.032,-736.11 218.703,-736.11 168.048,-736.11 168.048,-736.11 143.228,-670.584 118.471,-605.096 93.789,-539.64 69.1902,-474.214 44.6824,-408.814 20.2714,-343.439 "
         id="polyline3286"
         style="fill:none" />
    </g>
    <g
       vector-effect="non-scaling-stroke"
       transform="matrix(2.85714,0,0,2.85714,-1845.4945,6729.284)"
       font-size="4pt"
       font-weight="400"
       font-style="normal"
       id="g3288"
       style="font-size:5px;font-style:normal;font-weight:400;fill:none;stroke:#ff0000;stroke-width:1;stroke-linecap:square;stroke-linejoin:bevel;stroke-opacity:1;font-family:Lucida Grande">
      <polyline
         points="0,-317.839 65.714,-300.091 118.97,-285.707 172.101,-271.207 225.2,-256.598 278.266,-241.901 331.294,-227.133 384.285,-212.303 437.237,-197.414 490.15,-182.464 543.029,-167.449 595.876,-152.362 648.703,-137.201 701.518,-121.959 754.333,-106.635 807.16,-91.2266 860.011,-75.7361 912.895,-60.1654 965.821,-44.5209 1018.79,-28.8095 1115.65,0 1115.65,0 1135.06,-152.454 1148.94,-268.648 1161.57,-385.28 1172.78,-501.006 1182.74,-617.108 1192.71,-749.11 1192.71,-749.11 1102.44,-749.11 1053.29,-749.11 1004.18,-749.11 955.094,-749.11 906.063,-749.11 857.096,-749.11 808.205,-749.11 759.394,-749.11 710.664,-749.11 661.995,-749.11 613.355,-749.11 564.698,-749.11 515.965,-749.11 467.091,-749.11 418.013,-749.11 368.674,-749.11 319.021,-749.11 269.032,-749.11 218.703,-749.11 162.278,-749.11 162.278,-749.11 133.874,-674.121 109.115,-608.624 84.4326,-543.17 59.8261,-477.723 35.3142,-412.312 0,-317.839 "
         id="polyline3290"
         style="fill:none" />
    </g>
  </g>
  <g
     id="g3428"
     transform="matrix(-1,0,0,-1,2971.3625,4628.6152)">
    <g
       vector-effect="non-scaling-stroke"
       transform="matrix(2.85714,0,0,2.85714,-1845.4945,6729.284)"
       font-size="4pt"
       font-weight="400"
       font-style="normal"
       id="g3292"
       style="font-size:5px;font-style:normal;font-weight:400;fill:none;stroke:#0000ff;stroke-width:1;stroke-linecap:square;stroke-linejoin:bevel;stroke-opacity:1;font-family:Lucida Grande">
      <polyline
         points="168.048,-786.345 218.703,-785.916 269.034,-785.365 319.027,-784.701 368.685,-784.016 418.03,-783.383 467.113,-782.849 515.989,-782.45 564.724,-782.201 613.381,-782.11 662.021,-782.161 710.69,-782.341 759.421,-782.627 808.233,-782.999 857.126,-783.429 906.096,-783.897 955.131,-784.387 1004.22,-784.885 1053.34,-785.381 1102.49,-785.868 1151.67,-786.345 1151.67,-786.345 1158.66,-908.353 1164.52,-1030.31 1169.03,-1152.22 1172.11,-1274.07 1173.78,-1395.84 1174.2,-1517.51 1174.2,-1517.51 1138.75,-1517.55 1103.31,-1517.58 1067.89,-1517.62 1032.49,-1517.65 997.099,-1517.69 961.735,-1517.72 926.4,-1517.76 891.104,-1517.79 855.855,-1517.83 820.665,-1517.86 785.538,-1517.89 750.466,-1517.93 715.427,-1517.96 680.369,-1518 645.2,-1518.03 609.778,-1518.07 573.901,-1518.1 537.292,-1518.14 499.605,-1518.18 460.427,-1518.22 460.427,-1518.22 410.696,-1396.06 361.293,-1274 312.289,-1152.02 263.729,-1030.09 215.641,-908.199 168.048,-786.345 "
         id="polyline3294"
         style="fill:none" />
    </g>
    <g
       vector-effect="non-scaling-stroke"
       transform="matrix(2.85714,0,0,2.85714,-1845.4945,6729.284)"
       font-size="4pt"
       font-weight="400"
       font-style="normal"
       id="g3296"
       style="font-size:5px;font-style:normal;font-weight:400;fill:none;stroke:#ff0000;stroke-width:1;stroke-linecap:square;stroke-linejoin:bevel;stroke-opacity:1;font-family:Lucida Grande">
      <polyline
         points="157.334,-786.435 218.703,-785.916 269.034,-785.365 319.027,-784.701 368.685,-784.016 418.03,-783.383 467.113,-782.849 515.989,-782.45 564.724,-782.201 613.381,-782.11 662.021,-782.161 710.69,-782.341 759.421,-782.627 808.233,-782.999 857.126,-783.429 906.096,-783.897 955.131,-784.387 1004.22,-784.885 1053.34,-785.381 1102.49,-785.868 1191.73,-786.734 1191.73,-786.734 1198.6,-906.063 1204.47,-1028.4 1209.01,-1151.18 1212.1,-1273.06 1213.77,-1395.3 1214.24,-1530.47 1214.24,-1530.47 1138.76,-1530.55 1103.32,-1530.58 1067.9,-1530.62 1032.5,-1530.65 997.112,-1530.69 961.748,-1530.72 926.413,-1530.76 891.116,-1530.79 855.868,-1530.83 820.678,-1530.86 785.55,-1530.89 750.479,-1530.93 715.44,-1530.96 680.382,-1531 645.213,-1531.03 609.791,-1531.07 573.913,-1531.1 537.305,-1531.14 499.618,-1531.18 454.924,-1531.22 454.924,-1531.22 401.426,-1399.81 352.014,-1277.73 303.011,-1155.75 254.426,-1033.76 206.327,-911.837 157.334,-786.435 "
         id="polyline3298"
         style="fill:none" />
    </g>
  </g>
  <g
     id="g3414"
     transform="translate(-275.77147,2001.0152)">
    <g
       vector-effect="non-scaling-stroke"
       transform="matrix(2.85714,0,0,2.85714,-1845.4945,6729.284)"
       font-size="4pt"
       font-weight="400"
       font-style="normal"
       id="g3308"
       style="font-size:5px;font-style:normal;font-weight:400;fill:none;stroke:#0000ff;stroke-width:1;stroke-linecap:square;stroke-linejoin:bevel;stroke-opacity:1;font-family:Lucida Grande">
      <polyline
         points="784.075,-2347.44 803.603,-2347.16 822.291,-2346.93 840.415,-2346.74 858.192,-2346.6 875.775,-2346.49 893.268,-2346.41 910.733,-2346.36 928.207,-2346.34 945.704,-2346.33 963.23,-2346.34 980.782,-2346.36 998.356,-2346.39 1015.95,-2346.42 1033.55,-2346.45 1051.16,-2346.48 1068.78,-2346.51 1086.41,-2346.54 1104.04,-2346.56 1121.68,-2346.59 1139.33,-2346.62 1139.33,-2346.62 1129.72,-2443.51 1119.26,-2540.46 1107.58,-2637.42 1094.49,-2734.36 1079.87,-2831.27 1063.7,-2928.13 1063.7,-2928.13 1063.47,-2928.04 1063.23,-2927.95 1063,-2927.85 1062.77,-2927.76 1062.54,-2927.67 1062.31,-2927.58 1062.07,-2927.48 1061.84,-2927.39 1061.61,-2927.3 1061.38,-2927.21 1061.14,-2927.12 1060.91,-2927.02 1060.68,-2926.93 1060.45,-2926.84 1060.21,-2926.75 1059.98,-2926.66 1059.75,-2926.57 1059.52,-2926.47 1059.28,-2926.38 1059.05,-2926.29 1059.05,-2926.29 1012.42,-2829.74 966.121,-2733.21 920.148,-2636.71 874.491,-2540.25 829.138,-2443.82 784.075,-2347.44 "
         id="polyline3310"
         style="fill:none" />
    </g>
    <g
       vector-effect="non-scaling-stroke"
       transform="matrix(2.85714,0,0,2.85714,-1845.4945,6729.284)"
       font-size="4pt"
       font-weight="400"
       font-style="normal"
       id="g3312"
       style="font-size:5px;font-style:normal;font-weight:400;fill:none;stroke:#ff0000;stroke-width:1;stroke-linecap:square;stroke-linejoin:bevel;stroke-opacity:1;font-family:Lucida Grande">
      <polyline
         points="773.097,-2347.59 803.603,-2347.16 822.291,-2346.93 840.415,-2346.74 858.192,-2346.6 875.775,-2346.49 893.268,-2346.41 910.733,-2346.36 928.207,-2346.34 945.704,-2346.33 963.23,-2346.34 980.782,-2346.36 998.356,-2346.39 1015.95,-2346.42 1033.55,-2346.45 1051.16,-2346.48 1068.78,-2346.51 1086.41,-2346.54 1104.04,-2346.56 1121.68,-2346.59 1179.56,-2346.69 1179.56,-2346.69 1169.53,-2447.46 1159.03,-2544.75 1147.23,-2642.7 1134.13,-2739.72 1119.42,-2837.24 1100.02,-2953.47 1100.02,-2953.47 1059.75,-2937.32 1059.52,-2937.23 1059.29,-2937.14 1059.06,-2937.05 1058.84,-2936.96 1058.61,-2936.87 1058.38,-2936.78 1058.16,-2936.69 1057.93,-2936.6 1057.7,-2936.51 1057.47,-2936.42 1057.24,-2936.33 1057.01,-2936.24 1056.78,-2936.14 1056.55,-2936.05 1056.31,-2935.96 1056.08,-2935.87 1055.85,-2935.78 1055.63,-2935.69 1051.75,-2934.17 1051.75,-2934.17 1003.4,-2834.06 957.093,-2737.51 911.12,-2641.01 865.442,-2544.5 820.079,-2448.06 773.097,-2347.59 "
         id="polyline3314"
         style="fill:none" />
    </g>
  </g>
  <g
     id="g3420"
     transform="translate(4228.496,35.215188)">
    <g
       vector-effect="non-scaling-stroke"
       transform="matrix(2.85714,0,0,2.85714,-1845.4945,6729.284)"
       font-size="4pt"
       font-weight="400"
       font-style="normal"
       id="g3300"
       style="font-size:5px;font-style:normal;font-weight:400;fill:none;stroke:#0000ff;stroke-width:1;stroke-linecap:square;stroke-linejoin:bevel;stroke-opacity:1;font-family:Lucida Grande">
      <polyline
         points="460.427,-1566.99 499.581,-1566.23 537.255,-1565.54 573.859,-1564.96 609.736,-1564.52 645.158,-1564.22 680.328,-1564.04 715.386,-1563.96 750.424,-1563.98 785.495,-1564.06 820.622,-1564.2 855.811,-1564.38 891.058,-1564.58 926.354,-1564.8 961.688,-1565.03 997.052,-1565.25 1032.44,-1565.48 1067.84,-1565.69 1103.26,-1565.89 1138.7,-1566.09 1174.15,-1566.28 1174.15,-1566.28 1173,-1688.64 1170.4,-1810.99 1165.81,-1933.3 1159.06,-2055.56 1150.13,-2177.74 1139.35,-2299.84 1139.35,-2299.84 1121.7,-2299.88 1104.06,-2299.92 1086.43,-2299.96 1068.8,-2300 1051.18,-2300.04 1033.57,-2300.08 1015.97,-2300.12 998.378,-2300.16 980.803,-2300.2 963.251,-2300.24 945.725,-2300.28 928.227,-2300.32 910.753,-2300.36 893.287,-2300.4 875.795,-2300.45 858.212,-2300.49 840.434,-2300.53 822.307,-2300.57 803.614,-2300.61 784.075,-2300.66 784.075,-2300.66 728.933,-2178.24 674.233,-2055.9 620.024,-1933.61 566.321,-1811.36 513.124,-1689.15 460.427,-1566.99 "
         id="polyline3302"
         style="fill:none" />
    </g>
    <g
       vector-effect="non-scaling-stroke"
       transform="matrix(2.85714,0,0,2.85714,-1845.4945,6729.284)"
       font-size="4pt"
       font-weight="400"
       font-style="normal"
       id="g3304"
       style="font-size:5px;font-style:normal;font-weight:400;fill:none;stroke:#ff0000;stroke-width:1;stroke-linecap:square;stroke-linejoin:bevel;stroke-opacity:1;font-family:Lucida Grande">
      <polyline
         points="449.612,-1567.19 499.581,-1566.23 537.255,-1565.54 573.859,-1564.96 609.736,-1564.52 645.158,-1564.22 680.328,-1564.04 715.386,-1563.96 750.424,-1563.98 785.495,-1564.06 820.622,-1564.2 855.811,-1564.38 891.058,-1564.58 926.354,-1564.8 961.688,-1565.03 997.052,-1565.25 1032.44,-1565.48 1067.84,-1565.69 1103.26,-1565.89 1138.7,-1566.09 1214.15,-1566.5 1214.15,-1566.5 1212.99,-1689.02 1210.39,-1811.84 1205.76,-1935.45 1199,-2057.76 1190.03,-2180.66 1178.37,-2312.75 1178.37,-2312.75 1121.73,-2312.88 1104.09,-2312.92 1086.46,-2312.96 1068.83,-2313 1051.21,-2313.04 1033.6,-2313.08 1016,-2313.12 998.408,-2313.16 980.833,-2313.2 963.281,-2313.24 945.755,-2313.28 928.257,-2313.32 910.783,-2313.36 893.317,-2313.4 875.825,-2313.45 858.241,-2313.49 840.464,-2313.53 822.337,-2313.57 803.644,-2313.61 778.968,-2313.67 778.968,-2313.67 719.804,-2182.32 665.091,-2059.95 610.882,-1937.66 557.152,-1815.35 503.942,-1693.11 449.612,-1567.19 "
         id="polyline3306"
         style="fill:none" />
    </g>
    <g
       vector-effect="non-scaling-stroke"
       transform="matrix(2.85714,0,0,2.85714,-1845.4945,6729.284)"
       font-size="4pt"
       font-weight="400"
       font-style="normal"
       id="g3316"
       style="font-size:5px;font-style:normal;font-weight:400;fill:none;stroke:#000000;stroke-width:1;stroke-linecap:square;stroke-linejoin:bevel;stroke-opacity:1;font-family:Lucida Grande">
      <text
         x="593"
         y="-1491"
         font-size="4pt"
         font-weight="400"
         font-style="normal"
         id="text3318"
         style="font-size:5px;font-style:normal;font-weight:400;fill:#000000;fill-opacity:1;stroke:none;font-family:Lucida Grande">Scale = 1.000</text>
    </g>
  </g>
  <g
     id="g5038"
     transform="translate(324.43679,64.227377)">
    <path
       transform="matrix(0.7999995,0,0,0.7999995,0,-6.3426503e-5)"
       inkscape:connector-curvature="0"
       id="path3452"
       d="m 0,161.17114 999.99609,0"
       style="fill:none;stroke:#000000;stroke-width:3;stroke-linecap:butt;stroke-linejoin:miter;stroke-opacity:1;marker-start:none;marker-mid:none;marker-end:none;stroke-miterlimit:4;stroke-dasharray:none" />
    <text
       sodipodi:linespacing="125%"
       id="text5034"
       y="120.73678"
       x="365.59976"
       style="font-size:31.99998093px;font-style:normal;font-weight:normal;line-height:125%;letter-spacing:0px;word-spacing:0px;fill:#000000;fill-opacity:1;stroke:none;font-family:Sans"
       xml:space="preserve"><tspan
         y="120.73678"
         x="365.59976"
         id="tspan5036"
         sodipodi:role="line">1m</tspan></text>
  </g>
</svg>
